# xmcd
#
# Track frame offsets:
#	150
#	15929
#	31023
#	50908
#	75970
#	98313
#	111584
#	125040
#	135434
#	147297
#	157240
#	171241
#	189019
#	201799
#	212702
#	233004
#	247833
#	260286
#	283729
#	324101
#
# Disc length: 4681 seconds
# Revision: 0
# Processed by: cddbd v1.5.2PL0 Copyright (c) Steve Scherf et al.
# Submitted via: dBpowerAMP V12.0
#
DISCID=05124714
DTITLE=Doug Sahm - The Genuine Texas Groover: The Complete Atlantic Recordings
DYEAR=1972
DGENRE=Tex-Mex;Blues
TTITLE0=San Francisco FM Blues [TGTG]
TTITLE1=Someday [TGTG]
TTITLE2=Blue Horizon [TGTG]
TTITLE3=Tennessee Blues [TGTG]
TTITLE4=Ain't That Loving You [TGTG]
TTITLE5=Texas Tornado [TGTG]
TTITLE6=Juan Mendoza [TGTG]
TTITLE7=Chicano [TGTG]
TTITLE8=I'll Be There [TGTG]
TTITLE9=Hard Way [TGTG]
TTITLE10=Nitty Gritty [TGTG]
TTITLE11=From A Jack To A King [TGTG]
TTITLE12=Leave Me Alone WIth The Blues [TGTG]
TTITLE13=I'm Just Tired Of Getting Burned (Alternate Version) [TGTG]
TTITLE14=Blue Horizon (Take 5) [TGTG]
TTITLE15=Nitty Gritty (backing Track) [TGTG]
TTITLE16=Sometimes You've Got To Stop Chasing Rainbows [TGTG]
TTITLE17=Bobby's Blues [TGTG]
TTITLE18=Your Friends (Full Length Version) [TGTG]
TTITLE19=Papa Ain't Salty (Full Length Version) [TGTG]
EXTD=
EXTT0=
EXTT1=
EXTT2=
EXTT3=
EXTT4=
EXTT5=
EXTT6=
EXTT7=
EXTT8=
EXTT9=
EXTT10=
EXTT11=
EXTT12=
EXTT13=
EXTT14=
EXTT15=
EXTT16=
EXTT17=
EXTT18=
EXTT19=
PLAYORDER=
